<svg xmlns="http://www.w3.org/2000/svg" viewBox="0 0 48 48">
  <path d="M10.5 6C7.462 6 5 8.462 5 11.5L5 36C5 39.314 7.686 42 11 42L37 42C40.314 42 43 39.314 43 36L43 11.5C43 8.462 40.538 6 37.5 6L10.5 6 z M 10.5 10C11.328 10 12 10.672 12 11.5C12 12.328 11.328 13 10.5 13C9.672 13 9 12.328 9 11.5C9 10.672 9.672 10 10.5 10 z M 15.5 10C16.328 10 17 10.672 17 11.5C17 12.328 16.328 13 15.5 13C14.672 13 14 12.328 14 11.5C14 10.672 14.672 10 15.5 10 z M 21.5 10L37.5 10C38.328 10 39 10.672 39 11.5C39 12.328 38.328 13.029297 37.5 13.029297L21.5 13.029297C20.672 13.029297 20 12.329 20 11.5C20 10.671 20.672 10 21.5 10 z M 9 17L39 17L39 36C39 37.105 38.105 38 37 38L11 38C9.895 38 9 37.105 9 36L9 17 z M 18 20 A 3.5 3.5 0 1 0 18 27 A 3.5 3.5 0 1 0 18 20 z M 27.5 20 A 1.50015 1.50015 0 1 0 27.5 23L34.5 23 A 1.50015 1.50015 0 1 0 34.5 20L27.5 20 z M 27.5 26 A 1.50015 1.50015 0 1 0 27.5 29L34.5 29 A 1.50015 1.50015 0 1 0 34.5 26L27.5 26 z M 13.5 29C12.672 29 12 29.672 12 30.5L12 31.5C12 33.433 14.686 35 18 35C21.314 35 24 33.433 24 31.5L24 30.5C24 29.672 23.328 29 22.5 29L13.5 29 z M 27.5 32 A 1.50015 1.50015 0 1 0 27.5 35L34.5 35 A 1.50015 1.50015 0 1 0 34.5 32L27.5 32 z" fill="#8324C2" />
</svg>