<svg xmlns="http://www.w3.org/2000/svg" viewBox="0 0 48 48">
  <path d="M25.5 29h-3c-1.93 0-3.5-1.57-3.5-3.5v-3c0-1.93 1.57-3.5 3.5-3.5h3c1.93 0 3.5 1.57 3.5 3.5v3C29 27.43 27.43 29 25.5 29zM37.5 28.944h-3c-1.93 0-3.5-1.57-3.5-3.5v-3c0-1.93 1.57-3.5 3.5-3.5h3c1.93 0 3.5 1.57 3.5 3.5v3C41 27.374 39.43 28.944 37.5 28.944zM13.5 28.944h-3c-1.93 0-3.5-1.57-3.5-3.5v-3c0-1.93 1.57-3.5 3.5-3.5h3c1.93 0 3.5 1.57 3.5 3.5v3C17 27.374 15.43 28.944 13.5 28.944zM25.5 17.056h-3c-1.93 0-3.5-1.57-3.5-3.5v-3c0-1.93 1.57-3.5 3.5-3.5h3c1.93 0 3.5 1.57 3.5 3.5v3C29 15.485 27.43 17.056 25.5 17.056zM37.5 17h-3c-1.93 0-3.5-1.57-3.5-3.5v-3C31 8.57 32.57 7 34.5 7h3c1.93 0 3.5 1.57 3.5 3.5v3C41 15.43 39.43 17 37.5 17zM13.5 17h-3C8.57 17 7 15.43 7 13.5v-3C7 8.57 8.57 7 10.5 7h3c1.93 0 3.5 1.57 3.5 3.5v3C17 15.43 15.43 17 13.5 17zM25.5 41.056h-3c-1.93 0-3.5-1.57-3.5-3.5v-3c0-1.93 1.57-3.5 3.5-3.5h3c1.93 0 3.5 1.57 3.5 3.5v3C29 39.485 27.43 41.056 25.5 41.056zM37.5 41h-3c-1.93 0-3.5-1.57-3.5-3.5v-3c0-1.93 1.57-3.5 3.5-3.5h3c1.93 0 3.5 1.57 3.5 3.5v3C41 39.43 39.43 41 37.5 41zM13.5 41h-3C8.57 41 7 39.43 7 37.5v-3c0-1.93 1.57-3.5 3.5-3.5h3c1.93 0 3.5 1.57 3.5 3.5v3C17 39.43 15.43 41 13.5 41z" fill="#FFFFFF" />
</svg>